<svg width="28" height="36" viewBox="0 0 28 36" fill="currentColor" xmlns="http://www.w3.org/2000/svg">
<path d="M7.57581 28.5497C5.17581 25.1751 3.58914 22.9014 2.81581 21.7287C1.89899 20.4077 1.14802 18.979 0.579811 17.4747C0.17406 16.1903 -0.0211303 14.8486 0.00181063 13.5017C-0.0139489 11.1206 0.635803 8.78238 1.87781 6.75074C3.10867 4.705 4.84449 3.00981 6.91881 1.82774C9.02965 0.629768 11.4152 0 13.8423 0C16.2694 0 18.655 0.629768 20.7658 1.82774C22.8401 3.00988 24.5759 4.70506 25.8068 6.75074C27.0476 8.78282 27.6966 11.1209 27.6808 13.5017C27.7038 14.8486 27.5086 16.1903 27.1028 17.4747C26.5354 18.979 25.7851 20.4077 24.8688 21.7287C24.0995 22.9014 22.5125 25.1751 20.1078 28.5497L15.2758 35.3007C15.1045 35.5189 14.8858 35.6953 14.6364 35.8165C14.3869 35.9378 14.1132 36.0008 13.8358 36.0008C13.5584 36.0008 13.2847 35.9378 13.0352 35.8165C12.7858 35.6953 12.5671 35.5189 12.3958 35.3007C11.1538 33.5194 9.54714 31.2691 7.57581 28.5497ZM17.9248 17.4747C18.4608 16.9611 18.8872 16.3443 19.1786 15.6615C19.47 14.9788 19.6201 14.2441 19.6201 13.5017C19.6201 12.7594 19.47 12.0247 19.1786 11.3419C18.8872 10.6592 18.4608 10.0424 17.9248 9.52874C16.8332 8.4683 15.3712 7.87511 13.8493 7.87511C12.3274 7.87511 10.8654 8.4683 9.77381 9.52874C9.23786 10.0424 8.81137 10.6592 8.52002 11.3419C8.22867 12.0247 8.07847 12.7594 8.07847 13.5017C8.07847 14.2441 8.22867 14.9788 8.52002 15.6615C8.81137 16.3443 9.23786 16.9611 9.77381 17.4747C10.8654 18.5352 12.3274 19.1284 13.8493 19.1284C15.3712 19.1284 16.8332 18.5352 17.9248 17.4747Z" fill="black"/>
</svg>
