<svg width="51" height="51" viewBox="0 0 51 51" fill="currentColor" xmlns="http://www.w3.org/2000/svg">
<rect width="51" height="51" rx="10" fill="white"/>
<g clip-path="url(#clip0_0_1)">
<path d="M33.274 44H18.728C12.806 43.991 8.009 39.194 8 33.274V18.726C8.009 12.804 12.806 8.009 18.728 8H33.274C39.194 8.009 43.991 12.804 44 18.726V33.274C43.991 39.194 39.194 43.991 33.274 44ZM40.375 18.726C40.38 14.804 37.205 11.622 33.281 11.618C33.281 11.618 33.279 11.618 33.274 11.618H18.728C14.806 11.618 11.627 14.797 11.627 18.716V33.274C11.627 37.193 14.806 40.373 18.728 40.373H33.274C37.196 40.373 40.375 37.193 40.375 33.274V18.726ZM35.333 18.989C34.084 18.989 33.072 17.976 33.072 16.728C33.072 15.479 34.084 14.466 35.333 14.466C36.582 14.466 37.594 15.479 37.594 16.728C37.594 17.976 36.582 18.989 35.333 18.989ZM26 35.308C20.861 35.308 16.692 31.141 16.692 26C16.692 20.859 20.861 16.689 26 16.689C31.141 16.689 35.31 20.859 35.31 26C35.302 31.136 31.139 35.299 26 35.308ZM26 20.307C22.859 20.307 20.31 22.856 20.31 26C20.31 29.143 22.859 31.69 26 31.69C29.143 31.69 31.692 29.143 31.692 26C31.692 22.856 29.143 20.307 26 20.307Z" fill="black"/>
</g>
<defs>
<clipPath id="clip0_0_1">
<rect width="36" height="36" fill="white" transform="translate(8 8)"/>
</clipPath>
</defs>
</svg>
