<svg width="36" height="36" viewBox="0 0 36 36" fill="currentColor" xmlns="http://www.w3.org/2000/svg">
<path d="M7.21857 15.5626C10.1071 21.2624 14.7381 25.8924 20.4386 28.7796L24.8446 24.3756C25.0912 24.0845 25.4256 23.8812 25.7977 23.7965C26.1697 23.7117 26.5592 23.75 26.9076 23.9056C29.2057 24.6639 31.6116 25.0438 34.0316 25.0306C34.2918 25.0245 34.5506 25.0712 34.7923 25.1679C35.034 25.2647 35.2535 25.4095 35.4376 25.5936C35.6217 25.7777 35.7665 25.9972 35.8632 26.2389C35.96 26.4806 36.0067 26.7394 36.0006 26.9996V34.0296C36.0072 34.29 35.9607 34.549 35.8641 34.7908C35.7675 35.0327 35.6227 35.2524 35.4385 35.4366C35.2544 35.6208 35.0347 35.7655 34.7928 35.8622C34.5509 35.9588 34.2919 36.0052 34.0316 35.9986C25.0108 35.983 16.3639 32.3926 9.98524 26.0139C3.60657 19.6353 0.0161646 10.9884 0.00056568 1.96761C-0.00575017 1.70741 0.040878 1.44864 0.13762 1.207C0.234361 0.965366 0.379198 0.745911 0.563338 0.561958C0.747478 0.378005 0.96708 0.233391 1.20881 0.136895C1.45055 0.0403989 1.70937 -0.00596624 1.96957 0.000614046H9.00157C9.26176 -0.00596624 9.52059 0.0403989 9.76232 0.136895C10.0041 0.233391 10.2237 0.378005 10.4078 0.561958C10.5919 0.745911 10.7368 0.965366 10.8335 1.207C10.9303 1.44864 10.9769 1.70741 10.9706 1.96761C10.9573 4.38819 11.3372 6.79486 12.0956 9.09361C12.2286 9.44547 12.2551 9.82868 12.1719 10.1955C12.0887 10.5623 11.8994 10.8966 11.6276 11.1566L7.21857 15.5626Z" fill="black"/>
</svg>
