<svg width="51" height="51" viewBox="0 0 51 51" fill="currentColor" xmlns="http://www.w3.org/2000/svg">
<rect width="51" height="51" rx="10" fill="white"/>
<path d="M37.67 43.582C29.8993 44.1388 22.0987 44.1388 14.328 43.582C13.5341 43.4995 12.7847 43.1746 12.1818 42.6515C11.5789 42.1284 11.1516 41.4324 10.958 40.658C10.5012 38.3448 10.3172 35.986 10.41 33.63C10.331 31.2743 10.5148 28.917 10.958 26.602C11.1592 25.8252 11.592 25.1281 12.199 24.6033C12.806 24.0785 13.5583 23.7509 14.356 23.664C22.118 23.1264 29.908 23.1264 37.67 23.664C38.4651 23.7494 39.2147 24.077 39.8175 24.6025C40.4203 25.128 40.847 25.826 41.04 26.602C41.4973 28.9151 41.6813 31.274 41.588 33.63C41.6664 35.9857 41.4826 38.3429 41.04 40.658C40.8464 41.4324 40.4191 42.1284 39.8162 42.6515C39.2133 43.1746 38.4639 43.4995 37.67 43.582ZM19.31 26.748H12.758V28.634H14.962V40.054H17.064V28.634H19.31V26.748ZM24.998 30.132H23.126V37.736C23.0009 37.958 22.827 38.1486 22.6173 38.2934C22.4077 38.4383 22.1679 38.5335 21.916 38.572C21.86 38.5736 21.8043 38.564 21.752 38.5437C21.6998 38.5235 21.6522 38.493 21.6119 38.454C21.5717 38.4151 21.5396 38.3685 21.5177 38.3169C21.4957 38.2654 21.4842 38.21 21.484 38.154C21.4493 37.9204 21.4399 37.6837 21.456 37.448V30.132H19.584V37.994C19.565 38.4893 19.623 38.9845 19.756 39.462C19.8496 39.7029 20.0207 39.9057 20.2423 40.0386C20.4639 40.1715 20.7234 40.2269 20.98 40.196C21.4021 40.1484 21.81 40.0153 22.179 39.8048C22.5479 39.5944 22.8701 39.311 23.126 38.972V40.052H24.998V30.13V30.132ZM32.14 33.128C32.1769 32.4597 32.1135 31.7896 31.952 31.14C31.873 30.8071 31.6799 30.5125 31.4062 30.3071C31.1326 30.1018 30.7957 29.9988 30.454 30.016C30.068 30.0399 29.6922 30.1491 29.3536 30.3359C29.015 30.5226 28.7221 30.7823 28.496 31.096V26.748H26.624V40.054H28.496V39.104C28.7228 39.4181 29.0156 39.6788 29.3539 39.8678C29.6921 40.0568 30.0676 40.1695 30.454 40.198C30.7914 40.2156 31.1245 40.1164 31.3973 39.9171C31.6702 39.7179 31.866 39.4307 31.952 39.104C32.1113 38.4445 32.1746 37.7655 32.14 37.088V33.128ZM39.254 36.628H37.338C37.3529 37.0365 37.3382 37.4456 37.294 37.852C37.2756 38.0572 37.1781 38.2471 37.022 38.3815C36.8659 38.5159 36.6636 38.5843 36.458 38.572C35.796 38.572 35.478 38.112 35.478 37.19V35.448H39.25V33.374C39.3164 32.5547 39.1142 31.7361 38.674 31.042C38.3958 30.7212 38.0519 30.464 37.6656 30.2877C37.2793 30.1114 36.8596 30.0202 36.435 30.0202C36.0104 30.0202 35.5907 30.1114 35.2044 30.2877C34.8181 30.464 34.4742 30.7212 34.196 31.042C33.7504 31.7342 33.5432 32.5531 33.606 33.374V36.844C33.5399 37.6694 33.7587 38.4925 34.226 39.176C34.493 39.5152 34.8378 39.7851 35.2312 39.963C35.6245 40.1409 36.0549 40.2215 36.486 40.198C36.9241 40.2235 37.3616 40.1393 37.759 39.9532C38.1564 39.7671 38.5011 39.4848 38.762 39.132C39.0033 38.8176 39.1571 38.445 39.208 38.052C39.2533 37.6651 39.268 37.2752 39.252 36.886V36.626L39.254 36.628ZM35.482 33.014C35.482 32.106 35.798 31.646 36.432 31.646C37.066 31.646 37.382 32.106 37.382 33.014V33.936H35.482V33.014ZM28.498 38.126V32.092C28.7438 31.8244 29.0851 31.6642 29.448 31.646C29.996 31.646 30.268 32.106 30.268 32.986V37.234C30.268 38.1273 29.9947 38.574 29.448 38.574C29.0835 38.5548 28.7413 38.3923 28.496 38.122L28.498 38.126ZM33.51 20.356C33.2598 20.7051 32.9374 20.9964 32.5647 21.21C32.192 21.4236 31.7777 21.5546 31.35 21.594C31.09 21.6238 30.8273 21.5683 30.6015 21.436C30.3757 21.3036 30.199 21.1015 30.098 20.86C29.9712 20.3665 29.9179 19.857 29.94 19.348V11.442H31.856V18.8C31.8468 19.0354 31.8515 19.2711 31.87 19.506C31.868 19.5651 31.8783 19.624 31.9 19.679C31.9217 19.7339 31.9545 19.7839 31.9963 19.8257C32.0381 19.8675 32.088 19.9003 32.143 19.922C32.198 19.9437 32.2569 19.9539 32.316 19.952C32.5692 19.912 32.8094 19.813 33.0172 19.6629C33.225 19.5128 33.3945 19.3158 33.512 19.088V11.442H35.428V21.464H33.512V20.356H33.51ZM25.562 21.594C25.139 21.6177 24.7166 21.5369 24.3322 21.3587C23.9478 21.1804 23.6132 20.9102 23.358 20.572C22.9079 19.8706 22.7006 19.0407 22.768 18.21V14.696C22.6985 13.8651 22.9059 13.0346 23.358 12.334C23.6154 11.9982 23.9504 11.7299 24.3343 11.5519C24.7181 11.3739 25.1394 11.2916 25.562 11.312C25.9886 11.2916 26.414 11.3737 26.8023 11.5515C27.1907 11.7293 27.5307 11.9977 27.794 12.334C28.246 13.0346 28.4535 13.8651 28.384 14.696V18.21C28.4535 19.0409 28.246 19.8714 27.794 20.572C27.5323 20.9107 27.192 21.1806 26.8026 21.3583C26.4132 21.536 25.9864 21.6162 25.559 21.592L25.562 21.594ZM26.47 14.322C26.47 13.4 26.196 12.94 25.562 12.94C24.9567 12.94 24.654 13.4007 24.654 14.322V18.542C24.654 19.478 24.956 19.954 25.562 19.954C26.196 19.954 26.47 19.478 26.47 18.542V14.322ZM20.206 21.464H18.104V16.02C17.7704 14.5713 17.3374 13.1472 16.808 11.758C16.348 10.506 15.886 9.238 15.44 8H17.672L19.17 13.284L20.596 8H22.742L20.208 16.022V21.466L20.206 21.464Z" fill="black"/>
</svg>
